Coordinates
version=1
nRows=19
nColumns=33
inDegrees=yes

Units are S.I. units (second, meters, Newtons, ...)
Angles are in degrees.

endheader
time	ground_thorax_rot_x	ground_thorax_rot_y	ground_thorax_rot_z	ground_thorax_tx	ground_thorax_ty	ground_thorax_tz	clav_prot_r	clav_elev_r	scapula_abduction_r	scapula_elevation_r	scapula_upward_rot_r	scapula_winging_r	shoulder_elv_r	plane_of_elev_r	axial_rot_r	elbow_flexion_r	pro_sup_r	wrist_flex_r	wrist_dev_r	clav_prot_l	clav_elev_l	scapula_abduction_l	scapula_elevation_l	scapula_upward_rot_l	scapula_winging_l	shoulder_elv_l	plane_of_elev_l	axial_rot_l	elbow_flexion_l	pro_sup_l	wrist_flex_l	wrist_dev_l
      9.67000000	    -38.15797557	     -1.21640283	     -2.25663438	     -6.29744109	    826.06470727	    -49.16534441	     16.19789943	    -45.00000000	     44.87328669	    -45.00000000	     -5.22730512	    264.06080973	  -1909.17046782	    157.74511769	      6.86725938	   1797.96742932	    162.88397783	     14.80464141	     15.61503473	      9.60938602	     28.35310230	    -37.30342890	    -45.00000000	    -45.00000000	   4032.81420655	  -7099.76660896	     21.76640011	   -179.99999979	   1783.05092653	   -344.22879548	      1.60117970	     -5.95561642
      9.68000000	    -38.21113861	     -1.83658339	     -1.70349425	     -3.66523630	    825.10971840	    -49.01695740	     16.96493095	    -45.00000000	     45.00000000	    -45.00000000	     -6.30219660	    264.43901183	  -1909.17377191	    157.62008417	      5.40610830	   1798.02941311	    163.05962186	     14.54680286	     15.92695427	     10.23563383	     28.61559375	    -37.03282605	    -45.00000000	    -45.00000000	   4032.61517812	  -7099.85334557	     21.76265134	   -179.99999979	   1783.22978032	   -342.86349773	      1.48948276	     -5.87259041
      9.69000000	    -38.29083201	     -2.13037303	     -1.36548158	     -0.99089965	    824.11452120	    -48.86739756	     17.43988520	    -45.00000000	     45.00000000	    -45.00000000	     -6.72356421	    264.42221173	  -1909.39856068	    157.33219155	      5.32680550	   1798.03301396	    163.54302961	     14.48561970	     15.94694753	     10.47227638	     28.70143132	    -37.00374471	    -45.00000000	    -45.00000000	   4032.55685207	  -7099.78271740	     21.75791941	   -179.99999979	   1783.26324888	   -341.79840056	      0.99400410	     -5.62724161
      9.70000000	    -38.11937697	     -0.27365428	     -3.04524678	      1.71926033	    823.07932081	    -48.71526237	     15.61346875	    -45.00000000	     45.00000000	    -45.00000000	     -2.95548989	    264.60284281	  -1909.37912832	    157.81151365	      6.30881741	   1798.05645188	    164.56451229	     14.54603596	     15.72329075	     10.69575729	     28.39978019	    -38.59214750	    -45.00000000	    -45.00000000	   4032.64277831	  -7099.73587091	     21.88633610	   -179.99999979	   1783.30704028	   -340.19570035	      1.91407038	     -5.82825570
      9.71000000	    -38.10082552	      0.14093209	     -3.39442248	      4.46137647	    822.00796123	    -48.55937374	     15.03263028	    -45.00000000	     45.00000000	    -45.00000000	     -2.02904665	    264.82540780	  -1909.44780398	    157.89742537	      6.35049544	   1798.07712846	    165.28790767	     14.53890051	     15.65984327	     11.31182395	     28.49656841	    -39.11409065	    -45.00000000	    -45.00000000	   4032.59235266	  -7099.75041728	     21.92096876	   -179.99999979	   1783.47457186	   -338.23071496	      2.08722102	     -5.78833961
      9.72000000	    -38.08358600	      0.39649126	     -3.63442401	      7.23442181	    820.89985799	    -48.39988834	     14.87474832	    -45.00000000	     45.00000000	    -45.00000000	     -1.47730271	    265.16388500	  -1909.46812489	    157.97249616	      6.08298600	   1798.09479458	    165.90772313	     14.44157191	     15.74729516	     11.77028404	     28.55784386	    -39.48047835	    -45.00000000	    -45.00000000	   4032.49405890	  -7099.75043023	     21.92396173	   -179.99999979	   1783.60456410	   -336.51803206	      2.31384097	     -5.79030861
      9.73000000	    -38.06878292	      0.81026944	     -3.99776928	     10.03124766	    819.75780273	    -48.23838429	     14.35506048	    -45.00000000	     45.00000000	    -45.00000000	     -0.57088561	    265.34571462	  -1909.60427655	    158.00746711	      6.04784196	   1798.14630044	    166.59727710	     14.41827239	     15.65601067	     12.34156616	     28.60478676	    -39.94726257	    -45.00000000	    -45.00000000	   4032.45483492	  -7099.68406147	     22.03217133	   -179.99999979	   1783.75709165	   -334.75891323	      2.36979864	     -5.72755104
      9.74000000	    -38.02884979	      1.26325644	     -4.36964434	     12.85163469	    818.58402314	    -48.07636351	     13.96824974	    -45.00000000	     45.00000000	    -45.00000000	      0.31840764	    265.51776839	  -1909.69850060	    158.03668983	      6.02482991	   1798.17375115	    167.29296683	     14.37769443	     15.62997666	     12.81917623	     28.65102720	    -40.48637540	    -45.00000000	    -45.00000000	   4032.39559117	  -7099.69925612	     22.06522634	   -179.99999979	   1783.90842303	   -332.96293740	      2.47425224	     -5.67310215
      9.75000000	    -38.00070385	      1.77400265	     -4.72658306	     15.68817053	    817.38212995	    -47.91623625	     13.27800024	    -45.00000000	     45.00000000	    -45.00000000	      1.39358412	    265.46984426	  -1909.88467684	    157.98495836	      6.25444932	   1798.23868506	    168.07895091	     14.34394680	     15.53909096	     13.15261512	     28.64526486	    -41.11521472	    -45.00000000	    -45.00000000	   4032.34636277	  -7099.68959149	     22.08904968	   -179.99999979	   1784.08129248	   -330.89936607	      2.51064981	     -5.55133809
      9.76000000	    -37.97631384	      2.08836976	     -5.08128593	     18.53540155	    816.15701168	    -47.75909177	     13.48655409	    -45.00000000	     45.00000000	    -45.00000000	      1.84411271	    266.01321106	  -1909.87437718	    158.15177295	      5.72298075	   1798.23298809	    168.64127824	     14.25153709	     15.69589981	     13.85828004	     28.76510568	    -41.53401674	    -45.00000000	    -45.00000000	   4032.28753423	  -7099.72351411	     22.09717859	   -179.99999979	   1784.23086090	   -329.18707532	      2.83353758	     -5.63171433
      9.77000000	    -37.93414849	      2.64573324	     -5.53706808	     21.38715425	    814.90801866	    -47.60624129	     12.78378146	    -45.00000000	     45.00000000	    -45.00000000	      2.99861867	    266.12783263	  -1910.01482977	    158.17734549	      5.83177092	   1798.35047602	    169.38917034	     14.21271265	     15.52619376	     14.31060314	     28.77250040	    -42.15931968	    -45.00000000	    -45.00000000	   4032.29112952	  -7099.70259003	     22.15134382	   -179.99999979	   1784.36037896	   -327.23353412	      2.92734458	     -5.52845186
      9.78000000	    -37.85267132	      3.17049271	     -6.00401899	     24.23978098	    813.63678095	    -47.45693706	     12.45453681	    -45.00000000	     45.00000000	    -45.00000000	      3.76165069	    266.39512990	  -1910.03237860	    158.24408181	      5.74570016	   1798.28708634	    170.10273201	     14.17989075	     15.57985862	     14.84954458	     28.83783057	    -42.77708903	    -45.00000000	    -45.00000000	   4032.20155847	  -7099.72538081	     22.17215027	   -179.99999979	   1784.63189221	   -325.24972674	      3.16796568	     -5.56587916
      9.79000000	    -37.76886345	      3.95558019	     -6.66951938	     27.08669303	    812.34150528	    -47.31105040	     11.36577300	    -45.00000000	     45.00000000	    -45.00000000	      5.42547358	    266.23816308	  -1910.27749122	    158.16387000	      6.34280974	   1798.37030575	    171.04134530	     14.19766375	     15.43875969	     15.21002517	     28.82288989	    -43.52882839	    -45.00000000	    -45.00000000	   4032.21975269	  -7099.61233672	     22.27287523	   -179.99999979	   1784.91174987	   -322.66443104	      3.28453554	     -5.45080376
      9.80000000	    -37.70996226	      4.44975613	     -7.13338305	     29.92324532	    811.02384847	    -47.16668621	     11.15152927	    -45.00000000	     45.00000000	    -45.00000000	      6.14055847	    266.66460679	  -1910.30228338	    158.32837933	      5.99765821	   1798.40318873	    171.71195373	     14.15757189	     15.41425240	     15.91317326	     28.93085362	    -44.10883889	    -45.00000000	    -45.00000000	   4032.18442253	  -7099.64101959	     22.28674593	   -179.99999979	   1785.16899462	   -320.29924741	      3.59558556	     -5.48722739
      9.81000000	    -37.63935898	      5.04390666	     -7.68453437	     32.74366222	    809.68057230	    -47.02376432	     10.64794460	    -45.00000000	     45.00000000	    -45.00000000	      7.22894990	    266.87274353	  -1910.43814557	    158.40888692	      5.97627462	   1798.45611583	    172.47146728	     14.13523010	     15.36415089	     16.54805214	     29.00802882	    -44.72088452	    -45.00000000	    -45.00000000	   4032.17521177	  -7099.57320805	     22.34374220	   -179.99999979	   1785.43897209	   -317.83782248	      3.85588771	     -5.48575365
      9.82000000	    -37.63715772	      5.26460041	     -7.87981244	     35.54513183	    808.31015163	    -46.88028077	     10.59165346	    -45.00000000	     45.00000000	    -45.00000000	      7.55518861	    267.18895911	  -1910.50174776	    158.46046105	      5.93784174	   1798.46719676	    173.16655285	     14.11314405	     15.35715684	     16.90789142	     29.02330995	    -45.00000000	    -45.00000000	    -45.00000000	   4032.05321925	  -7099.57237366	     22.34230203	   -179.99999979	   1785.69844630	   -315.54296916	      4.04131755	     -5.44307301
      9.83000000	    -37.66306872	      5.32025108	     -7.90014969	     38.32015609	    806.91122899	    -46.73556678	     10.20031113	    -45.00000000	     45.00000000	    -45.00000000	      8.09257481	    267.28135033	  -1910.65168492	    158.50684836	      6.25211368	   1798.53024448	    173.96493335	     14.13063374	     15.22506363	     16.95106696	     28.92229381	    -45.00000000	    -45.00000000	    -45.00000000	   4031.84432651	  -7099.47245853	     22.42182791	   -179.99999979	   1785.97693918	   -313.14172795	      4.16381878	     -5.31949115
      9.84000000	    -37.71120924	      5.35820495	     -7.94516460	     41.06280954	    805.48389592	    -46.58732338	     10.30063292	    -45.00000000	     45.00000000	    -45.00000000	      8.11937023	    267.64405272	  -1910.72094403	    158.57699677	      6.15694564	   1798.50809559	    174.62715871	     14.12495537	     15.21879181	     17.25917912	     28.92382623	    -45.00000000	    -45.00000000	    -45.00000000	   4031.64762830	  -7099.36385286	     22.44654692	   -179.99999979	   1786.23628770	   -310.98143464	      4.32980318	     -5.26622529
      9.85000000	    -37.80744110	      5.26768042	     -7.76468829	     43.76524089	    804.02732346	    -46.43464342	     11.34334009	    -45.00000000	     45.00000000	    -45.00000000	      8.09111340	    267.58423155	  -1911.02550453	    158.34457783	      5.90518398	   1798.72266778	    175.19526722	     14.07754876	     15.21369987	     17.58823900	     28.94795772	    -45.00000000	    -45.00000000	    -45.00000000	   4031.54553517	  -7099.36984551	     22.55297811	   -179.99999979	   1786.44365129	   -309.04562217	      4.01120493	     -4.80089849
